G75*
%MOIN*%
%OFA0B0*%
%FSLAX25Y25*%
%IPPOS*%
%LPD*%
%AMOC8*
5,1,8,0,0,1.08239X$1,22.5*
%
%ADD10C,0.12611*%
%ADD11C,0.07400*%
%ADD12C,0.08200*%
D10*
X0012811Y0012811D03*
X0012811Y0276591D03*
X0276591Y0276591D03*
X0276591Y0012811D03*
D11*
X0233283Y0056118D03*
X0233283Y0115173D03*
X0174228Y0115173D03*
X0174228Y0056118D03*
X0115173Y0056118D03*
X0115173Y0115173D03*
X0056118Y0115173D03*
X0044307Y0123047D03*
X0044307Y0142732D03*
X0056118Y0174228D03*
X0026589Y0174228D03*
X0056118Y0233283D03*
X0115173Y0233283D03*
X0115173Y0174228D03*
X0174228Y0174228D03*
X0233283Y0174228D03*
X0233283Y0233283D03*
X0174228Y0233283D03*
X0026591Y0085646D03*
X0056118Y0056118D03*
D12*
X0030291Y0115173D02*
X0022891Y0115173D01*
X0022891Y0125173D02*
X0030291Y0125173D01*
X0030291Y0135173D02*
X0022891Y0135173D01*
X0022891Y0145173D02*
X0030291Y0145173D01*
X0056118Y0272891D02*
X0056118Y0280291D01*
X0066118Y0280291D02*
X0066118Y0272891D01*
X0076118Y0272891D02*
X0076118Y0280291D01*
X0086118Y0280291D02*
X0086118Y0272891D01*
X0096118Y0272891D02*
X0096118Y0280291D01*
X0106118Y0280291D02*
X0106118Y0272891D01*
X0116118Y0272891D02*
X0116118Y0280291D01*
X0126118Y0280291D02*
X0126118Y0272891D01*
X0136118Y0272891D02*
X0136118Y0280291D01*
X0146118Y0280291D02*
X0146118Y0272891D01*
X0156118Y0272891D02*
X0156118Y0280291D01*
X0166118Y0280291D02*
X0166118Y0272891D01*
X0176118Y0272891D02*
X0176118Y0280291D01*
X0186118Y0280291D02*
X0186118Y0272891D01*
X0196118Y0272891D02*
X0196118Y0280291D01*
X0206118Y0280291D02*
X0206118Y0272891D01*
M02*
