%
M48
M72
T01C0.04000
T02C0.04400
T03C0.11811
%
T01
X56118Y56118
X26591Y85646
X56118Y115173
X44307Y123047
X44307Y142732
X56118Y174228
X26589Y174228
X56118Y233283
X115173Y233283
X115173Y174228
X174228Y174228
X233283Y174228
X233283Y233283
X174228Y233283
X174228Y115173
X233283Y115173
X233283Y56118
X174228Y56118
X115173Y56118
X115173Y115173
T02
X26591Y115173
X26591Y125173
X26591Y135173
X26591Y145173
X56118Y276591
X66118Y276591
X76118Y276591
X86118Y276591
X96118Y276591
X106118Y276591
X116118Y276591
X126118Y276591
X136118Y276591
X146118Y276591
X156118Y276591
X166118Y276591
X176118Y276591
X186118Y276591
X196118Y276591
X206118Y276591
T03
X12811Y12811
X12811Y276591
X276591Y276591
X276591Y12811
M30
