G75*
%MOIN*%
%OFA0B0*%
%FSLAX25Y25*%
%IPPOS*%
%LPD*%
%AMOC8*
5,1,8,0,0,1.08239X$1,22.5*
%
%ADD10C,0.00000*%
%ADD11C,0.07400*%
%ADD12C,0.07400*%
%ADD13C,0.01000*%
D10*
X0001000Y0001000D02*
X0001787Y0288402D01*
X0289189Y0288402D01*
X0288401Y0001000D01*
X0001000Y0001000D01*
X0006905Y0012811D02*
X0006907Y0012964D01*
X0006913Y0013118D01*
X0006923Y0013271D01*
X0006937Y0013423D01*
X0006955Y0013576D01*
X0006977Y0013727D01*
X0007002Y0013878D01*
X0007032Y0014029D01*
X0007066Y0014179D01*
X0007103Y0014327D01*
X0007144Y0014475D01*
X0007189Y0014621D01*
X0007238Y0014767D01*
X0007291Y0014911D01*
X0007347Y0015053D01*
X0007407Y0015194D01*
X0007471Y0015334D01*
X0007538Y0015472D01*
X0007609Y0015608D01*
X0007684Y0015742D01*
X0007761Y0015874D01*
X0007843Y0016004D01*
X0007927Y0016132D01*
X0008015Y0016258D01*
X0008106Y0016381D01*
X0008200Y0016502D01*
X0008298Y0016620D01*
X0008398Y0016736D01*
X0008502Y0016849D01*
X0008608Y0016960D01*
X0008717Y0017068D01*
X0008829Y0017173D01*
X0008943Y0017274D01*
X0009061Y0017373D01*
X0009180Y0017469D01*
X0009302Y0017562D01*
X0009427Y0017651D01*
X0009554Y0017738D01*
X0009683Y0017820D01*
X0009814Y0017900D01*
X0009947Y0017976D01*
X0010082Y0018049D01*
X0010219Y0018118D01*
X0010358Y0018183D01*
X0010498Y0018245D01*
X0010640Y0018303D01*
X0010783Y0018358D01*
X0010928Y0018409D01*
X0011074Y0018456D01*
X0011221Y0018499D01*
X0011369Y0018538D01*
X0011518Y0018574D01*
X0011668Y0018605D01*
X0011819Y0018633D01*
X0011970Y0018657D01*
X0012123Y0018677D01*
X0012275Y0018693D01*
X0012428Y0018705D01*
X0012581Y0018713D01*
X0012734Y0018717D01*
X0012888Y0018717D01*
X0013041Y0018713D01*
X0013194Y0018705D01*
X0013347Y0018693D01*
X0013499Y0018677D01*
X0013652Y0018657D01*
X0013803Y0018633D01*
X0013954Y0018605D01*
X0014104Y0018574D01*
X0014253Y0018538D01*
X0014401Y0018499D01*
X0014548Y0018456D01*
X0014694Y0018409D01*
X0014839Y0018358D01*
X0014982Y0018303D01*
X0015124Y0018245D01*
X0015264Y0018183D01*
X0015403Y0018118D01*
X0015540Y0018049D01*
X0015675Y0017976D01*
X0015808Y0017900D01*
X0015939Y0017820D01*
X0016068Y0017738D01*
X0016195Y0017651D01*
X0016320Y0017562D01*
X0016442Y0017469D01*
X0016561Y0017373D01*
X0016679Y0017274D01*
X0016793Y0017173D01*
X0016905Y0017068D01*
X0017014Y0016960D01*
X0017120Y0016849D01*
X0017224Y0016736D01*
X0017324Y0016620D01*
X0017422Y0016502D01*
X0017516Y0016381D01*
X0017607Y0016258D01*
X0017695Y0016132D01*
X0017779Y0016004D01*
X0017861Y0015874D01*
X0017938Y0015742D01*
X0018013Y0015608D01*
X0018084Y0015472D01*
X0018151Y0015334D01*
X0018215Y0015194D01*
X0018275Y0015053D01*
X0018331Y0014911D01*
X0018384Y0014767D01*
X0018433Y0014621D01*
X0018478Y0014475D01*
X0018519Y0014327D01*
X0018556Y0014179D01*
X0018590Y0014029D01*
X0018620Y0013878D01*
X0018645Y0013727D01*
X0018667Y0013576D01*
X0018685Y0013423D01*
X0018699Y0013271D01*
X0018709Y0013118D01*
X0018715Y0012964D01*
X0018717Y0012811D01*
X0018715Y0012658D01*
X0018709Y0012504D01*
X0018699Y0012351D01*
X0018685Y0012199D01*
X0018667Y0012046D01*
X0018645Y0011895D01*
X0018620Y0011744D01*
X0018590Y0011593D01*
X0018556Y0011443D01*
X0018519Y0011295D01*
X0018478Y0011147D01*
X0018433Y0011001D01*
X0018384Y0010855D01*
X0018331Y0010711D01*
X0018275Y0010569D01*
X0018215Y0010428D01*
X0018151Y0010288D01*
X0018084Y0010150D01*
X0018013Y0010014D01*
X0017938Y0009880D01*
X0017861Y0009748D01*
X0017779Y0009618D01*
X0017695Y0009490D01*
X0017607Y0009364D01*
X0017516Y0009241D01*
X0017422Y0009120D01*
X0017324Y0009002D01*
X0017224Y0008886D01*
X0017120Y0008773D01*
X0017014Y0008662D01*
X0016905Y0008554D01*
X0016793Y0008449D01*
X0016679Y0008348D01*
X0016561Y0008249D01*
X0016442Y0008153D01*
X0016320Y0008060D01*
X0016195Y0007971D01*
X0016068Y0007884D01*
X0015939Y0007802D01*
X0015808Y0007722D01*
X0015675Y0007646D01*
X0015540Y0007573D01*
X0015403Y0007504D01*
X0015264Y0007439D01*
X0015124Y0007377D01*
X0014982Y0007319D01*
X0014839Y0007264D01*
X0014694Y0007213D01*
X0014548Y0007166D01*
X0014401Y0007123D01*
X0014253Y0007084D01*
X0014104Y0007048D01*
X0013954Y0007017D01*
X0013803Y0006989D01*
X0013652Y0006965D01*
X0013499Y0006945D01*
X0013347Y0006929D01*
X0013194Y0006917D01*
X0013041Y0006909D01*
X0012888Y0006905D01*
X0012734Y0006905D01*
X0012581Y0006909D01*
X0012428Y0006917D01*
X0012275Y0006929D01*
X0012123Y0006945D01*
X0011970Y0006965D01*
X0011819Y0006989D01*
X0011668Y0007017D01*
X0011518Y0007048D01*
X0011369Y0007084D01*
X0011221Y0007123D01*
X0011074Y0007166D01*
X0010928Y0007213D01*
X0010783Y0007264D01*
X0010640Y0007319D01*
X0010498Y0007377D01*
X0010358Y0007439D01*
X0010219Y0007504D01*
X0010082Y0007573D01*
X0009947Y0007646D01*
X0009814Y0007722D01*
X0009683Y0007802D01*
X0009554Y0007884D01*
X0009427Y0007971D01*
X0009302Y0008060D01*
X0009180Y0008153D01*
X0009061Y0008249D01*
X0008943Y0008348D01*
X0008829Y0008449D01*
X0008717Y0008554D01*
X0008608Y0008662D01*
X0008502Y0008773D01*
X0008398Y0008886D01*
X0008298Y0009002D01*
X0008200Y0009120D01*
X0008106Y0009241D01*
X0008015Y0009364D01*
X0007927Y0009490D01*
X0007843Y0009618D01*
X0007761Y0009748D01*
X0007684Y0009880D01*
X0007609Y0010014D01*
X0007538Y0010150D01*
X0007471Y0010288D01*
X0007407Y0010428D01*
X0007347Y0010569D01*
X0007291Y0010711D01*
X0007238Y0010855D01*
X0007189Y0011001D01*
X0007144Y0011147D01*
X0007103Y0011295D01*
X0007066Y0011443D01*
X0007032Y0011593D01*
X0007002Y0011744D01*
X0006977Y0011895D01*
X0006955Y0012046D01*
X0006937Y0012199D01*
X0006923Y0012351D01*
X0006913Y0012504D01*
X0006907Y0012658D01*
X0006905Y0012811D01*
X0006905Y0276591D02*
X0006907Y0276744D01*
X0006913Y0276898D01*
X0006923Y0277051D01*
X0006937Y0277203D01*
X0006955Y0277356D01*
X0006977Y0277507D01*
X0007002Y0277658D01*
X0007032Y0277809D01*
X0007066Y0277959D01*
X0007103Y0278107D01*
X0007144Y0278255D01*
X0007189Y0278401D01*
X0007238Y0278547D01*
X0007291Y0278691D01*
X0007347Y0278833D01*
X0007407Y0278974D01*
X0007471Y0279114D01*
X0007538Y0279252D01*
X0007609Y0279388D01*
X0007684Y0279522D01*
X0007761Y0279654D01*
X0007843Y0279784D01*
X0007927Y0279912D01*
X0008015Y0280038D01*
X0008106Y0280161D01*
X0008200Y0280282D01*
X0008298Y0280400D01*
X0008398Y0280516D01*
X0008502Y0280629D01*
X0008608Y0280740D01*
X0008717Y0280848D01*
X0008829Y0280953D01*
X0008943Y0281054D01*
X0009061Y0281153D01*
X0009180Y0281249D01*
X0009302Y0281342D01*
X0009427Y0281431D01*
X0009554Y0281518D01*
X0009683Y0281600D01*
X0009814Y0281680D01*
X0009947Y0281756D01*
X0010082Y0281829D01*
X0010219Y0281898D01*
X0010358Y0281963D01*
X0010498Y0282025D01*
X0010640Y0282083D01*
X0010783Y0282138D01*
X0010928Y0282189D01*
X0011074Y0282236D01*
X0011221Y0282279D01*
X0011369Y0282318D01*
X0011518Y0282354D01*
X0011668Y0282385D01*
X0011819Y0282413D01*
X0011970Y0282437D01*
X0012123Y0282457D01*
X0012275Y0282473D01*
X0012428Y0282485D01*
X0012581Y0282493D01*
X0012734Y0282497D01*
X0012888Y0282497D01*
X0013041Y0282493D01*
X0013194Y0282485D01*
X0013347Y0282473D01*
X0013499Y0282457D01*
X0013652Y0282437D01*
X0013803Y0282413D01*
X0013954Y0282385D01*
X0014104Y0282354D01*
X0014253Y0282318D01*
X0014401Y0282279D01*
X0014548Y0282236D01*
X0014694Y0282189D01*
X0014839Y0282138D01*
X0014982Y0282083D01*
X0015124Y0282025D01*
X0015264Y0281963D01*
X0015403Y0281898D01*
X0015540Y0281829D01*
X0015675Y0281756D01*
X0015808Y0281680D01*
X0015939Y0281600D01*
X0016068Y0281518D01*
X0016195Y0281431D01*
X0016320Y0281342D01*
X0016442Y0281249D01*
X0016561Y0281153D01*
X0016679Y0281054D01*
X0016793Y0280953D01*
X0016905Y0280848D01*
X0017014Y0280740D01*
X0017120Y0280629D01*
X0017224Y0280516D01*
X0017324Y0280400D01*
X0017422Y0280282D01*
X0017516Y0280161D01*
X0017607Y0280038D01*
X0017695Y0279912D01*
X0017779Y0279784D01*
X0017861Y0279654D01*
X0017938Y0279522D01*
X0018013Y0279388D01*
X0018084Y0279252D01*
X0018151Y0279114D01*
X0018215Y0278974D01*
X0018275Y0278833D01*
X0018331Y0278691D01*
X0018384Y0278547D01*
X0018433Y0278401D01*
X0018478Y0278255D01*
X0018519Y0278107D01*
X0018556Y0277959D01*
X0018590Y0277809D01*
X0018620Y0277658D01*
X0018645Y0277507D01*
X0018667Y0277356D01*
X0018685Y0277203D01*
X0018699Y0277051D01*
X0018709Y0276898D01*
X0018715Y0276744D01*
X0018717Y0276591D01*
X0018715Y0276438D01*
X0018709Y0276284D01*
X0018699Y0276131D01*
X0018685Y0275979D01*
X0018667Y0275826D01*
X0018645Y0275675D01*
X0018620Y0275524D01*
X0018590Y0275373D01*
X0018556Y0275223D01*
X0018519Y0275075D01*
X0018478Y0274927D01*
X0018433Y0274781D01*
X0018384Y0274635D01*
X0018331Y0274491D01*
X0018275Y0274349D01*
X0018215Y0274208D01*
X0018151Y0274068D01*
X0018084Y0273930D01*
X0018013Y0273794D01*
X0017938Y0273660D01*
X0017861Y0273528D01*
X0017779Y0273398D01*
X0017695Y0273270D01*
X0017607Y0273144D01*
X0017516Y0273021D01*
X0017422Y0272900D01*
X0017324Y0272782D01*
X0017224Y0272666D01*
X0017120Y0272553D01*
X0017014Y0272442D01*
X0016905Y0272334D01*
X0016793Y0272229D01*
X0016679Y0272128D01*
X0016561Y0272029D01*
X0016442Y0271933D01*
X0016320Y0271840D01*
X0016195Y0271751D01*
X0016068Y0271664D01*
X0015939Y0271582D01*
X0015808Y0271502D01*
X0015675Y0271426D01*
X0015540Y0271353D01*
X0015403Y0271284D01*
X0015264Y0271219D01*
X0015124Y0271157D01*
X0014982Y0271099D01*
X0014839Y0271044D01*
X0014694Y0270993D01*
X0014548Y0270946D01*
X0014401Y0270903D01*
X0014253Y0270864D01*
X0014104Y0270828D01*
X0013954Y0270797D01*
X0013803Y0270769D01*
X0013652Y0270745D01*
X0013499Y0270725D01*
X0013347Y0270709D01*
X0013194Y0270697D01*
X0013041Y0270689D01*
X0012888Y0270685D01*
X0012734Y0270685D01*
X0012581Y0270689D01*
X0012428Y0270697D01*
X0012275Y0270709D01*
X0012123Y0270725D01*
X0011970Y0270745D01*
X0011819Y0270769D01*
X0011668Y0270797D01*
X0011518Y0270828D01*
X0011369Y0270864D01*
X0011221Y0270903D01*
X0011074Y0270946D01*
X0010928Y0270993D01*
X0010783Y0271044D01*
X0010640Y0271099D01*
X0010498Y0271157D01*
X0010358Y0271219D01*
X0010219Y0271284D01*
X0010082Y0271353D01*
X0009947Y0271426D01*
X0009814Y0271502D01*
X0009683Y0271582D01*
X0009554Y0271664D01*
X0009427Y0271751D01*
X0009302Y0271840D01*
X0009180Y0271933D01*
X0009061Y0272029D01*
X0008943Y0272128D01*
X0008829Y0272229D01*
X0008717Y0272334D01*
X0008608Y0272442D01*
X0008502Y0272553D01*
X0008398Y0272666D01*
X0008298Y0272782D01*
X0008200Y0272900D01*
X0008106Y0273021D01*
X0008015Y0273144D01*
X0007927Y0273270D01*
X0007843Y0273398D01*
X0007761Y0273528D01*
X0007684Y0273660D01*
X0007609Y0273794D01*
X0007538Y0273930D01*
X0007471Y0274068D01*
X0007407Y0274208D01*
X0007347Y0274349D01*
X0007291Y0274491D01*
X0007238Y0274635D01*
X0007189Y0274781D01*
X0007144Y0274927D01*
X0007103Y0275075D01*
X0007066Y0275223D01*
X0007032Y0275373D01*
X0007002Y0275524D01*
X0006977Y0275675D01*
X0006955Y0275826D01*
X0006937Y0275979D01*
X0006923Y0276131D01*
X0006913Y0276284D01*
X0006907Y0276438D01*
X0006905Y0276591D01*
X0270685Y0276591D02*
X0270687Y0276744D01*
X0270693Y0276898D01*
X0270703Y0277051D01*
X0270717Y0277203D01*
X0270735Y0277356D01*
X0270757Y0277507D01*
X0270782Y0277658D01*
X0270812Y0277809D01*
X0270846Y0277959D01*
X0270883Y0278107D01*
X0270924Y0278255D01*
X0270969Y0278401D01*
X0271018Y0278547D01*
X0271071Y0278691D01*
X0271127Y0278833D01*
X0271187Y0278974D01*
X0271251Y0279114D01*
X0271318Y0279252D01*
X0271389Y0279388D01*
X0271464Y0279522D01*
X0271541Y0279654D01*
X0271623Y0279784D01*
X0271707Y0279912D01*
X0271795Y0280038D01*
X0271886Y0280161D01*
X0271980Y0280282D01*
X0272078Y0280400D01*
X0272178Y0280516D01*
X0272282Y0280629D01*
X0272388Y0280740D01*
X0272497Y0280848D01*
X0272609Y0280953D01*
X0272723Y0281054D01*
X0272841Y0281153D01*
X0272960Y0281249D01*
X0273082Y0281342D01*
X0273207Y0281431D01*
X0273334Y0281518D01*
X0273463Y0281600D01*
X0273594Y0281680D01*
X0273727Y0281756D01*
X0273862Y0281829D01*
X0273999Y0281898D01*
X0274138Y0281963D01*
X0274278Y0282025D01*
X0274420Y0282083D01*
X0274563Y0282138D01*
X0274708Y0282189D01*
X0274854Y0282236D01*
X0275001Y0282279D01*
X0275149Y0282318D01*
X0275298Y0282354D01*
X0275448Y0282385D01*
X0275599Y0282413D01*
X0275750Y0282437D01*
X0275903Y0282457D01*
X0276055Y0282473D01*
X0276208Y0282485D01*
X0276361Y0282493D01*
X0276514Y0282497D01*
X0276668Y0282497D01*
X0276821Y0282493D01*
X0276974Y0282485D01*
X0277127Y0282473D01*
X0277279Y0282457D01*
X0277432Y0282437D01*
X0277583Y0282413D01*
X0277734Y0282385D01*
X0277884Y0282354D01*
X0278033Y0282318D01*
X0278181Y0282279D01*
X0278328Y0282236D01*
X0278474Y0282189D01*
X0278619Y0282138D01*
X0278762Y0282083D01*
X0278904Y0282025D01*
X0279044Y0281963D01*
X0279183Y0281898D01*
X0279320Y0281829D01*
X0279455Y0281756D01*
X0279588Y0281680D01*
X0279719Y0281600D01*
X0279848Y0281518D01*
X0279975Y0281431D01*
X0280100Y0281342D01*
X0280222Y0281249D01*
X0280341Y0281153D01*
X0280459Y0281054D01*
X0280573Y0280953D01*
X0280685Y0280848D01*
X0280794Y0280740D01*
X0280900Y0280629D01*
X0281004Y0280516D01*
X0281104Y0280400D01*
X0281202Y0280282D01*
X0281296Y0280161D01*
X0281387Y0280038D01*
X0281475Y0279912D01*
X0281559Y0279784D01*
X0281641Y0279654D01*
X0281718Y0279522D01*
X0281793Y0279388D01*
X0281864Y0279252D01*
X0281931Y0279114D01*
X0281995Y0278974D01*
X0282055Y0278833D01*
X0282111Y0278691D01*
X0282164Y0278547D01*
X0282213Y0278401D01*
X0282258Y0278255D01*
X0282299Y0278107D01*
X0282336Y0277959D01*
X0282370Y0277809D01*
X0282400Y0277658D01*
X0282425Y0277507D01*
X0282447Y0277356D01*
X0282465Y0277203D01*
X0282479Y0277051D01*
X0282489Y0276898D01*
X0282495Y0276744D01*
X0282497Y0276591D01*
X0282495Y0276438D01*
X0282489Y0276284D01*
X0282479Y0276131D01*
X0282465Y0275979D01*
X0282447Y0275826D01*
X0282425Y0275675D01*
X0282400Y0275524D01*
X0282370Y0275373D01*
X0282336Y0275223D01*
X0282299Y0275075D01*
X0282258Y0274927D01*
X0282213Y0274781D01*
X0282164Y0274635D01*
X0282111Y0274491D01*
X0282055Y0274349D01*
X0281995Y0274208D01*
X0281931Y0274068D01*
X0281864Y0273930D01*
X0281793Y0273794D01*
X0281718Y0273660D01*
X0281641Y0273528D01*
X0281559Y0273398D01*
X0281475Y0273270D01*
X0281387Y0273144D01*
X0281296Y0273021D01*
X0281202Y0272900D01*
X0281104Y0272782D01*
X0281004Y0272666D01*
X0280900Y0272553D01*
X0280794Y0272442D01*
X0280685Y0272334D01*
X0280573Y0272229D01*
X0280459Y0272128D01*
X0280341Y0272029D01*
X0280222Y0271933D01*
X0280100Y0271840D01*
X0279975Y0271751D01*
X0279848Y0271664D01*
X0279719Y0271582D01*
X0279588Y0271502D01*
X0279455Y0271426D01*
X0279320Y0271353D01*
X0279183Y0271284D01*
X0279044Y0271219D01*
X0278904Y0271157D01*
X0278762Y0271099D01*
X0278619Y0271044D01*
X0278474Y0270993D01*
X0278328Y0270946D01*
X0278181Y0270903D01*
X0278033Y0270864D01*
X0277884Y0270828D01*
X0277734Y0270797D01*
X0277583Y0270769D01*
X0277432Y0270745D01*
X0277279Y0270725D01*
X0277127Y0270709D01*
X0276974Y0270697D01*
X0276821Y0270689D01*
X0276668Y0270685D01*
X0276514Y0270685D01*
X0276361Y0270689D01*
X0276208Y0270697D01*
X0276055Y0270709D01*
X0275903Y0270725D01*
X0275750Y0270745D01*
X0275599Y0270769D01*
X0275448Y0270797D01*
X0275298Y0270828D01*
X0275149Y0270864D01*
X0275001Y0270903D01*
X0274854Y0270946D01*
X0274708Y0270993D01*
X0274563Y0271044D01*
X0274420Y0271099D01*
X0274278Y0271157D01*
X0274138Y0271219D01*
X0273999Y0271284D01*
X0273862Y0271353D01*
X0273727Y0271426D01*
X0273594Y0271502D01*
X0273463Y0271582D01*
X0273334Y0271664D01*
X0273207Y0271751D01*
X0273082Y0271840D01*
X0272960Y0271933D01*
X0272841Y0272029D01*
X0272723Y0272128D01*
X0272609Y0272229D01*
X0272497Y0272334D01*
X0272388Y0272442D01*
X0272282Y0272553D01*
X0272178Y0272666D01*
X0272078Y0272782D01*
X0271980Y0272900D01*
X0271886Y0273021D01*
X0271795Y0273144D01*
X0271707Y0273270D01*
X0271623Y0273398D01*
X0271541Y0273528D01*
X0271464Y0273660D01*
X0271389Y0273794D01*
X0271318Y0273930D01*
X0271251Y0274068D01*
X0271187Y0274208D01*
X0271127Y0274349D01*
X0271071Y0274491D01*
X0271018Y0274635D01*
X0270969Y0274781D01*
X0270924Y0274927D01*
X0270883Y0275075D01*
X0270846Y0275223D01*
X0270812Y0275373D01*
X0270782Y0275524D01*
X0270757Y0275675D01*
X0270735Y0275826D01*
X0270717Y0275979D01*
X0270703Y0276131D01*
X0270693Y0276284D01*
X0270687Y0276438D01*
X0270685Y0276591D01*
X0270685Y0012811D02*
X0270687Y0012964D01*
X0270693Y0013118D01*
X0270703Y0013271D01*
X0270717Y0013423D01*
X0270735Y0013576D01*
X0270757Y0013727D01*
X0270782Y0013878D01*
X0270812Y0014029D01*
X0270846Y0014179D01*
X0270883Y0014327D01*
X0270924Y0014475D01*
X0270969Y0014621D01*
X0271018Y0014767D01*
X0271071Y0014911D01*
X0271127Y0015053D01*
X0271187Y0015194D01*
X0271251Y0015334D01*
X0271318Y0015472D01*
X0271389Y0015608D01*
X0271464Y0015742D01*
X0271541Y0015874D01*
X0271623Y0016004D01*
X0271707Y0016132D01*
X0271795Y0016258D01*
X0271886Y0016381D01*
X0271980Y0016502D01*
X0272078Y0016620D01*
X0272178Y0016736D01*
X0272282Y0016849D01*
X0272388Y0016960D01*
X0272497Y0017068D01*
X0272609Y0017173D01*
X0272723Y0017274D01*
X0272841Y0017373D01*
X0272960Y0017469D01*
X0273082Y0017562D01*
X0273207Y0017651D01*
X0273334Y0017738D01*
X0273463Y0017820D01*
X0273594Y0017900D01*
X0273727Y0017976D01*
X0273862Y0018049D01*
X0273999Y0018118D01*
X0274138Y0018183D01*
X0274278Y0018245D01*
X0274420Y0018303D01*
X0274563Y0018358D01*
X0274708Y0018409D01*
X0274854Y0018456D01*
X0275001Y0018499D01*
X0275149Y0018538D01*
X0275298Y0018574D01*
X0275448Y0018605D01*
X0275599Y0018633D01*
X0275750Y0018657D01*
X0275903Y0018677D01*
X0276055Y0018693D01*
X0276208Y0018705D01*
X0276361Y0018713D01*
X0276514Y0018717D01*
X0276668Y0018717D01*
X0276821Y0018713D01*
X0276974Y0018705D01*
X0277127Y0018693D01*
X0277279Y0018677D01*
X0277432Y0018657D01*
X0277583Y0018633D01*
X0277734Y0018605D01*
X0277884Y0018574D01*
X0278033Y0018538D01*
X0278181Y0018499D01*
X0278328Y0018456D01*
X0278474Y0018409D01*
X0278619Y0018358D01*
X0278762Y0018303D01*
X0278904Y0018245D01*
X0279044Y0018183D01*
X0279183Y0018118D01*
X0279320Y0018049D01*
X0279455Y0017976D01*
X0279588Y0017900D01*
X0279719Y0017820D01*
X0279848Y0017738D01*
X0279975Y0017651D01*
X0280100Y0017562D01*
X0280222Y0017469D01*
X0280341Y0017373D01*
X0280459Y0017274D01*
X0280573Y0017173D01*
X0280685Y0017068D01*
X0280794Y0016960D01*
X0280900Y0016849D01*
X0281004Y0016736D01*
X0281104Y0016620D01*
X0281202Y0016502D01*
X0281296Y0016381D01*
X0281387Y0016258D01*
X0281475Y0016132D01*
X0281559Y0016004D01*
X0281641Y0015874D01*
X0281718Y0015742D01*
X0281793Y0015608D01*
X0281864Y0015472D01*
X0281931Y0015334D01*
X0281995Y0015194D01*
X0282055Y0015053D01*
X0282111Y0014911D01*
X0282164Y0014767D01*
X0282213Y0014621D01*
X0282258Y0014475D01*
X0282299Y0014327D01*
X0282336Y0014179D01*
X0282370Y0014029D01*
X0282400Y0013878D01*
X0282425Y0013727D01*
X0282447Y0013576D01*
X0282465Y0013423D01*
X0282479Y0013271D01*
X0282489Y0013118D01*
X0282495Y0012964D01*
X0282497Y0012811D01*
X0282495Y0012658D01*
X0282489Y0012504D01*
X0282479Y0012351D01*
X0282465Y0012199D01*
X0282447Y0012046D01*
X0282425Y0011895D01*
X0282400Y0011744D01*
X0282370Y0011593D01*
X0282336Y0011443D01*
X0282299Y0011295D01*
X0282258Y0011147D01*
X0282213Y0011001D01*
X0282164Y0010855D01*
X0282111Y0010711D01*
X0282055Y0010569D01*
X0281995Y0010428D01*
X0281931Y0010288D01*
X0281864Y0010150D01*
X0281793Y0010014D01*
X0281718Y0009880D01*
X0281641Y0009748D01*
X0281559Y0009618D01*
X0281475Y0009490D01*
X0281387Y0009364D01*
X0281296Y0009241D01*
X0281202Y0009120D01*
X0281104Y0009002D01*
X0281004Y0008886D01*
X0280900Y0008773D01*
X0280794Y0008662D01*
X0280685Y0008554D01*
X0280573Y0008449D01*
X0280459Y0008348D01*
X0280341Y0008249D01*
X0280222Y0008153D01*
X0280100Y0008060D01*
X0279975Y0007971D01*
X0279848Y0007884D01*
X0279719Y0007802D01*
X0279588Y0007722D01*
X0279455Y0007646D01*
X0279320Y0007573D01*
X0279183Y0007504D01*
X0279044Y0007439D01*
X0278904Y0007377D01*
X0278762Y0007319D01*
X0278619Y0007264D01*
X0278474Y0007213D01*
X0278328Y0007166D01*
X0278181Y0007123D01*
X0278033Y0007084D01*
X0277884Y0007048D01*
X0277734Y0007017D01*
X0277583Y0006989D01*
X0277432Y0006965D01*
X0277279Y0006945D01*
X0277127Y0006929D01*
X0276974Y0006917D01*
X0276821Y0006909D01*
X0276668Y0006905D01*
X0276514Y0006905D01*
X0276361Y0006909D01*
X0276208Y0006917D01*
X0276055Y0006929D01*
X0275903Y0006945D01*
X0275750Y0006965D01*
X0275599Y0006989D01*
X0275448Y0007017D01*
X0275298Y0007048D01*
X0275149Y0007084D01*
X0275001Y0007123D01*
X0274854Y0007166D01*
X0274708Y0007213D01*
X0274563Y0007264D01*
X0274420Y0007319D01*
X0274278Y0007377D01*
X0274138Y0007439D01*
X0273999Y0007504D01*
X0273862Y0007573D01*
X0273727Y0007646D01*
X0273594Y0007722D01*
X0273463Y0007802D01*
X0273334Y0007884D01*
X0273207Y0007971D01*
X0273082Y0008060D01*
X0272960Y0008153D01*
X0272841Y0008249D01*
X0272723Y0008348D01*
X0272609Y0008449D01*
X0272497Y0008554D01*
X0272388Y0008662D01*
X0272282Y0008773D01*
X0272178Y0008886D01*
X0272078Y0009002D01*
X0271980Y0009120D01*
X0271886Y0009241D01*
X0271795Y0009364D01*
X0271707Y0009490D01*
X0271623Y0009618D01*
X0271541Y0009748D01*
X0271464Y0009880D01*
X0271389Y0010014D01*
X0271318Y0010150D01*
X0271251Y0010288D01*
X0271187Y0010428D01*
X0271127Y0010569D01*
X0271071Y0010711D01*
X0271018Y0010855D01*
X0270969Y0011001D01*
X0270924Y0011147D01*
X0270883Y0011295D01*
X0270846Y0011443D01*
X0270812Y0011593D01*
X0270782Y0011744D01*
X0270757Y0011895D01*
X0270735Y0012046D01*
X0270717Y0012199D01*
X0270703Y0012351D01*
X0270693Y0012504D01*
X0270687Y0012658D01*
X0270685Y0012811D01*
D11*
X0233283Y0056118D03*
X0233283Y0115173D03*
X0174228Y0115173D03*
X0174228Y0056118D03*
X0115173Y0056118D03*
X0115173Y0115173D03*
X0056118Y0115173D03*
X0044307Y0123047D03*
X0044307Y0142732D03*
X0056118Y0174228D03*
X0026589Y0174228D03*
X0056118Y0233283D03*
X0115173Y0233283D03*
X0115173Y0174228D03*
X0174228Y0174228D03*
X0233283Y0174228D03*
X0233283Y0233283D03*
X0174228Y0233283D03*
X0026591Y0085646D03*
X0056118Y0056118D03*
D12*
X0030291Y0115173D02*
X0022891Y0115173D01*
X0022891Y0125173D02*
X0030291Y0125173D01*
X0030291Y0135173D02*
X0022891Y0135173D01*
X0022891Y0145173D02*
X0030291Y0145173D01*
X0056118Y0272891D02*
X0056118Y0280291D01*
X0066118Y0280291D02*
X0066118Y0272891D01*
X0076118Y0272891D02*
X0076118Y0280291D01*
X0086118Y0280291D02*
X0086118Y0272891D01*
X0096118Y0272891D02*
X0096118Y0280291D01*
X0106118Y0280291D02*
X0106118Y0272891D01*
X0116118Y0272891D02*
X0116118Y0280291D01*
X0126118Y0280291D02*
X0126118Y0272891D01*
X0136118Y0272891D02*
X0136118Y0280291D01*
X0146118Y0280291D02*
X0146118Y0272891D01*
X0156118Y0272891D02*
X0156118Y0280291D01*
X0166118Y0280291D02*
X0166118Y0272891D01*
X0176118Y0272891D02*
X0176118Y0280291D01*
X0186118Y0280291D02*
X0186118Y0272891D01*
X0196118Y0272891D02*
X0196118Y0280291D01*
X0206118Y0280291D02*
X0206118Y0272891D01*
D13*
X0206118Y0274280D02*
X0222314Y0258083D01*
X0243556Y0258083D01*
X0258706Y0242934D01*
X0258706Y0101462D01*
X0233283Y0076040D01*
X0233283Y0056118D01*
X0248386Y0093688D02*
X0174228Y0093688D01*
X0174228Y0056118D01*
X0174228Y0056118D01*
X0119110Y0095488D02*
X0247640Y0095488D01*
X0254769Y0102617D01*
X0254769Y0241779D01*
X0242065Y0254483D01*
X0224502Y0254483D01*
X0222987Y0252969D01*
X0205724Y0252969D01*
X0186118Y0272575D01*
X0186118Y0276591D01*
X0196118Y0276591D02*
X0196118Y0274386D01*
X0215735Y0254769D01*
X0222242Y0254769D01*
X0223756Y0256283D01*
X0242810Y0256283D01*
X0256906Y0242188D01*
X0256906Y0111236D01*
X0256569Y0110899D01*
X0256569Y0101871D01*
X0248386Y0093688D01*
X0252969Y0103362D02*
X0252969Y0241034D01*
X0241319Y0252683D01*
X0225247Y0252683D01*
X0223396Y0250831D01*
X0186661Y0250831D01*
X0183313Y0254179D01*
X0176118Y0261375D01*
X0176118Y0276591D01*
X0166118Y0276591D02*
X0166118Y0268829D01*
X0185916Y0249031D01*
X0224141Y0249031D01*
X0225993Y0250883D01*
X0240574Y0250883D01*
X0250883Y0240573D01*
X0250883Y0172380D01*
X0249031Y0170529D01*
X0249031Y0170291D01*
X0233283Y0154543D01*
X0233283Y0115173D01*
X0252969Y0103362D02*
X0067929Y0103362D01*
X0056118Y0091551D01*
X0056118Y0056118D01*
X0056118Y0056118D01*
X0026591Y0085646D02*
X0012811Y0099425D01*
X0012811Y0107299D01*
X0020684Y0115172D01*
X0026591Y0115173D01*
X0026591Y0125173D02*
X0042182Y0125172D01*
X0044307Y0123047D01*
X0056118Y0115173D02*
X0056118Y0115173D01*
X0056118Y0142732D01*
X0075803Y0162417D01*
X0233283Y0162417D01*
X0245483Y0174617D01*
X0245483Y0238337D01*
X0238337Y0245483D01*
X0228230Y0245483D01*
X0225704Y0242957D01*
X0184353Y0242957D01*
X0180027Y0247283D01*
X0168429Y0247283D01*
X0165229Y0244083D01*
X0128912Y0244083D01*
X0123047Y0249948D01*
X0123047Y0256906D01*
X0136118Y0269976D01*
X0136118Y0276591D01*
X0126118Y0276591D02*
X0126118Y0271787D01*
X0111236Y0256906D01*
X0111236Y0252969D01*
X0115847Y0248357D01*
X0122093Y0248357D01*
X0128167Y0242283D01*
X0165974Y0242283D01*
X0169174Y0245483D01*
X0179281Y0245483D01*
X0183607Y0241157D01*
X0226450Y0241157D01*
X0228975Y0243683D01*
X0237591Y0243683D01*
X0243683Y0237591D01*
X0243683Y0228975D01*
X0233283Y0218575D01*
X0233283Y0174228D01*
X0234029Y0160617D02*
X0247283Y0173872D01*
X0247283Y0239082D01*
X0239082Y0247283D01*
X0227484Y0247283D01*
X0225295Y0245094D01*
X0184761Y0245094D01*
X0180773Y0249083D01*
X0167683Y0249083D01*
X0164483Y0245883D01*
X0130921Y0245883D01*
X0126984Y0249820D01*
X0126984Y0255146D01*
X0146118Y0274280D01*
X0146118Y0276591D01*
X0156118Y0276591D02*
X0156118Y0274228D01*
X0134858Y0252969D01*
X0134858Y0249031D01*
X0136192Y0247697D01*
X0163752Y0247697D01*
X0166938Y0250883D01*
X0181518Y0250883D01*
X0185507Y0246894D01*
X0224550Y0246894D01*
X0226739Y0249083D01*
X0239828Y0249083D01*
X0249083Y0239828D01*
X0249083Y0173126D01*
X0234775Y0158817D01*
X0174228Y0158817D01*
X0174228Y0158480D01*
X0174228Y0158480D01*
X0174228Y0115173D01*
X0119110Y0095488D02*
X0115173Y0091551D01*
X0115173Y0056118D01*
X0115173Y0115173D02*
X0115173Y0115173D01*
X0115173Y0160617D01*
X0234029Y0160617D01*
X0174228Y0174228D02*
X0174228Y0213598D01*
X0182439Y0221809D01*
X0233972Y0221809D01*
X0241883Y0229721D01*
X0241883Y0236845D01*
X0236845Y0241883D01*
X0229721Y0241883D01*
X0226858Y0239020D01*
X0183199Y0239020D01*
X0178536Y0243683D01*
X0169920Y0243683D01*
X0166720Y0240483D01*
X0127421Y0240483D01*
X0121347Y0246557D01*
X0107299Y0246557D01*
X0099425Y0254431D01*
X0099425Y0258505D01*
X0110418Y0269498D01*
X0116118Y0275198D01*
X0116118Y0276591D01*
X0110418Y0269580D02*
X0110418Y0269498D01*
X0106118Y0272654D02*
X0106118Y0276591D01*
X0106118Y0272654D02*
X0090764Y0257299D01*
X0090764Y0251127D01*
X0090687Y0251050D01*
X0096979Y0244757D01*
X0120601Y0244757D01*
X0126676Y0238683D01*
X0167466Y0238683D01*
X0170666Y0241883D01*
X0177790Y0241883D01*
X0182453Y0237220D01*
X0227604Y0237220D01*
X0230467Y0240083D01*
X0236100Y0240083D01*
X0240083Y0236100D01*
X0240083Y0230466D01*
X0233226Y0223609D01*
X0121247Y0223609D01*
X0115173Y0217535D01*
X0115173Y0174228D01*
X0071866Y0225409D02*
X0232481Y0225409D01*
X0238283Y0231212D01*
X0238283Y0235354D01*
X0235354Y0238283D01*
X0231212Y0238283D01*
X0228012Y0235083D01*
X0182045Y0235083D01*
X0177045Y0240083D01*
X0171411Y0240083D01*
X0168211Y0236883D01*
X0125930Y0236883D01*
X0119856Y0242957D01*
X0096234Y0242957D01*
X0088887Y0250304D01*
X0088887Y0266052D01*
X0096118Y0273283D01*
X0096118Y0276591D01*
X0086118Y0276591D02*
X0086118Y0250528D01*
X0095488Y0241157D01*
X0119110Y0241157D01*
X0125184Y0235083D01*
X0169228Y0235083D01*
X0169228Y0235354D01*
X0172157Y0238283D01*
X0176299Y0238283D01*
X0181299Y0233283D01*
X0233283Y0233283D01*
X0206118Y0274280D02*
X0206118Y0276591D01*
X0183313Y0254179D02*
X0183009Y0254483D01*
X0174228Y0233283D02*
X0122244Y0233283D01*
X0117244Y0238283D01*
X0094426Y0238283D01*
X0075803Y0256906D01*
X0075803Y0274965D01*
X0076118Y0275280D01*
X0076118Y0276591D01*
X0066118Y0276591D02*
X0066118Y0254780D01*
X0087615Y0233283D01*
X0115173Y0233283D01*
X0071866Y0225409D02*
X0056118Y0209661D01*
X0056118Y0174228D01*
X0026589Y0174228D02*
X0012811Y0160449D01*
X0012811Y0150606D01*
X0018245Y0145172D01*
X0026591Y0145173D01*
X0026591Y0135173D02*
X0036747Y0135172D01*
X0044307Y0142732D01*
X0056118Y0233283D02*
X0056118Y0275279D01*
X0056118Y0275280D01*
X0056118Y0276591D01*
M02*
