%
M48
M72
T01C0.02300
T02C0.02362
T03C0.03543
T04C0.04000
T05C0.04400
T06C0.11811
%
T01
X75316Y82796
X95001Y68623
X101300Y90276
X114686Y97757
X102087Y122560
X118623Y143032
X126497Y142245
X126103Y131615
X131221Y123741
X142245Y142639
X147757Y142639
X161536Y133977
X161930Y129253
X178072Y135158
X183977Y139489
X201300Y143820
X202481Y149725
X166261Y167048
X141851Y200906
X152481Y206812
X161536Y206812
X166261Y204056
X171379Y207206
X166654Y214686
X129253Y200119
X121772Y200119
X114292Y200119
X106418Y200119
X94607Y169804
X99725Y167048
X106418Y158387
X214292Y218229
X223741Y223741
X252087Y220985
X252087Y204843
X265867Y150119
X265473Y140276
X265080Y129253
X113111Y43032
X102875Y43032
X93032Y43032
T02
X138308Y91064
X125709Y112324
X176103Y170198
X229646Y183583
X266654Y272166
X35946Y271772
X39095Y33583
X265080Y21379
T03
X161733Y30158
X144410Y30158
T04
X177729Y190670
X188729Y190670
T05
X192245Y274961
X202245Y274961
X212245Y274961
X222245Y274961
X232245Y274961
X182245Y274961
X172245Y274961
X162245Y274961
X152245Y274961
X142245Y274961
X132245Y274961
X122245Y274961
X112245Y274961
X102245Y274961
X92245Y274961
X82245Y274961
X38308Y153347
X38308Y143347
X38308Y133347
X38308Y123347
X62875Y22442
X72875Y22442
X82875Y22442
X92875Y22442
X102875Y22442
X112875Y22442
X285828Y129765
X285828Y139765
X285828Y149765
X285828Y159765
T06
X24528Y20985
X288308Y20985
X288308Y284765
X24528Y284765
M30
