G75*
%MOIN*%
%OFA0B0*%
%FSLAX25Y25*%
%IPPOS*%
%LPD*%
%AMOC8*
5,1,8,0,0,1.08239X$1,22.5*
%
%ADD10C,0.12611*%
%ADD11R,0.03950X0.05524*%
%ADD12R,0.05524X0.03950*%
%ADD13C,0.01421*%
%ADD14C,0.08200*%
%ADD15R,0.02769X0.10643*%
%ADD16R,0.08674X0.10643*%
%ADD17C,0.04343*%
%ADD18C,0.06800*%
%ADD19R,0.04343X0.03950*%
%ADD20R,0.06706X0.05918*%
%ADD21R,0.05918X0.06706*%
%ADD22R,0.07099X0.09855*%
%ADD23R,0.03000X0.05800*%
%ADD24R,0.05800X0.03000*%
%ADD25R,0.08400X0.21800*%
%ADD26C,0.04762*%
%ADD27C,0.04700*%
D10*
X0024528Y0020985D03*
X0288308Y0020985D03*
X0288308Y0284765D03*
X0024528Y0284765D03*
D11*
X0075355Y0072835D03*
X0082442Y0072835D03*
X0147245Y0050631D03*
X0154331Y0050631D03*
D12*
X0203544Y0047599D03*
X0203544Y0054686D03*
X0203780Y0081024D03*
X0203780Y0088111D03*
X0153544Y0166182D03*
X0153544Y0173269D03*
D13*
X0203245Y0116186D02*
X0203245Y0112870D01*
X0199929Y0112870D01*
X0199929Y0116186D01*
X0203245Y0116186D01*
X0203245Y0114290D02*
X0199929Y0114290D01*
X0199929Y0115710D02*
X0203245Y0115710D01*
X0210151Y0116186D02*
X0210151Y0112870D01*
X0206835Y0112870D01*
X0206835Y0116186D01*
X0210151Y0116186D01*
X0210151Y0114290D02*
X0206835Y0114290D01*
X0206835Y0115710D02*
X0210151Y0115710D01*
D14*
X0282128Y0129765D02*
X0289528Y0129765D01*
X0289528Y0139765D02*
X0282128Y0139765D01*
X0282128Y0149765D02*
X0289528Y0149765D01*
X0289528Y0159765D02*
X0282128Y0159765D01*
X0232245Y0271261D02*
X0232245Y0278661D01*
X0222245Y0278661D02*
X0222245Y0271261D01*
X0212245Y0271261D02*
X0212245Y0278661D01*
X0202245Y0278661D02*
X0202245Y0271261D01*
X0192245Y0271261D02*
X0192245Y0278661D01*
X0182245Y0278661D02*
X0182245Y0271261D01*
X0172245Y0271261D02*
X0172245Y0278661D01*
X0162245Y0278661D02*
X0162245Y0271261D01*
X0152245Y0271261D02*
X0152245Y0278661D01*
X0142245Y0278661D02*
X0142245Y0271261D01*
X0132245Y0271261D02*
X0132245Y0278661D01*
X0122245Y0278661D02*
X0122245Y0271261D01*
X0112245Y0271261D02*
X0112245Y0278661D01*
X0102245Y0278661D02*
X0102245Y0271261D01*
X0092245Y0271261D02*
X0092245Y0278661D01*
X0082245Y0278661D02*
X0082245Y0271261D01*
X0042008Y0153347D02*
X0034608Y0153347D01*
X0034608Y0143347D02*
X0042008Y0143347D01*
X0042008Y0133347D02*
X0034608Y0133347D01*
X0034608Y0123347D02*
X0042008Y0123347D01*
X0062875Y0026142D02*
X0062875Y0018742D01*
X0072875Y0018742D02*
X0072875Y0026142D01*
X0082875Y0026142D02*
X0082875Y0018742D01*
X0092875Y0018742D02*
X0092875Y0026142D01*
X0102875Y0026142D02*
X0102875Y0018742D01*
X0112875Y0018742D02*
X0112875Y0026142D01*
D15*
X0146772Y0040001D03*
X0149922Y0040001D03*
X0153072Y0040001D03*
X0156221Y0040001D03*
X0159371Y0040001D03*
D16*
X0170788Y0040001D03*
X0170788Y0018347D03*
X0135355Y0018347D03*
X0135355Y0040001D03*
D17*
X0144410Y0030158D03*
X0161733Y0030158D03*
D18*
X0177729Y0187670D02*
X0177729Y0193670D01*
X0188729Y0193670D02*
X0188729Y0187670D01*
D19*
X0061812Y0170001D03*
X0061812Y0162520D03*
X0053544Y0166261D03*
X0061812Y0150631D03*
X0061812Y0143150D03*
X0053544Y0146891D03*
X0061812Y0131261D03*
X0061812Y0123780D03*
X0053544Y0127520D03*
X0061812Y0111891D03*
X0061812Y0104410D03*
X0053544Y0108150D03*
D20*
X0082009Y0241654D03*
X0082009Y0249135D03*
X0091851Y0249135D03*
X0091851Y0241654D03*
X0102284Y0241654D03*
X0102284Y0249135D03*
X0112127Y0249135D03*
X0112127Y0241654D03*
X0121969Y0241654D03*
X0121969Y0249135D03*
X0131812Y0249135D03*
X0131812Y0241654D03*
X0141654Y0241654D03*
X0141654Y0249135D03*
X0152284Y0249135D03*
X0152284Y0241654D03*
X0162127Y0241654D03*
X0162127Y0249135D03*
X0171969Y0249135D03*
X0171969Y0241654D03*
X0181812Y0241654D03*
X0181812Y0249135D03*
X0191654Y0249135D03*
X0191654Y0241654D03*
X0201497Y0241654D03*
X0201497Y0249135D03*
X0213308Y0249135D03*
X0213308Y0241654D03*
X0223150Y0241654D03*
X0223150Y0249135D03*
X0232993Y0249135D03*
X0232993Y0241654D03*
X0203269Y0071379D03*
X0203269Y0063898D03*
D21*
X0220906Y0115080D03*
X0228387Y0115080D03*
X0091221Y0122954D03*
X0083741Y0122954D03*
X0083426Y0105237D03*
X0090906Y0105237D03*
X0091536Y0142639D03*
X0084056Y0142639D03*
X0084371Y0162324D03*
X0091851Y0162324D03*
X0079568Y0052087D03*
X0072087Y0052087D03*
D22*
X0057009Y0051930D03*
X0057009Y0076733D03*
D23*
X0140985Y0123061D03*
X0144135Y0123061D03*
X0147284Y0123061D03*
X0150434Y0123061D03*
X0153583Y0123061D03*
X0156733Y0123061D03*
X0159883Y0123061D03*
X0163032Y0123061D03*
X0163032Y0156861D03*
X0159883Y0156861D03*
X0156733Y0156861D03*
X0153583Y0156861D03*
X0150434Y0156861D03*
X0147284Y0156861D03*
X0144135Y0156861D03*
X0140985Y0156861D03*
D24*
X0135109Y0150985D03*
X0135109Y0147835D03*
X0135109Y0144686D03*
X0135109Y0141536D03*
X0135109Y0138387D03*
X0135109Y0135237D03*
X0135109Y0132087D03*
X0135109Y0128938D03*
X0168909Y0128938D03*
X0168909Y0132087D03*
X0168909Y0135237D03*
X0168909Y0138387D03*
X0168909Y0141536D03*
X0168909Y0144686D03*
X0168909Y0147835D03*
X0168909Y0150985D03*
D25*
X0231930Y0085418D03*
X0231930Y0047418D03*
D26*
X0265080Y0021379D03*
X0138308Y0091064D03*
X0125709Y0112324D03*
X0176103Y0170198D03*
X0229646Y0183583D03*
X0266654Y0272166D03*
X0035946Y0271772D03*
X0039095Y0033583D03*
D27*
X0093032Y0043032D03*
X0102875Y0043032D03*
X0113111Y0043032D03*
X0095001Y0068623D03*
X0075316Y0082796D03*
X0101300Y0090276D03*
X0114686Y0097757D03*
X0102087Y0122560D03*
X0118623Y0143032D03*
X0126497Y0142245D03*
X0126103Y0131615D03*
X0131221Y0123741D03*
X0142245Y0142639D03*
X0147757Y0142639D03*
X0161536Y0133977D03*
X0161930Y0129253D03*
X0178072Y0135158D03*
X0183977Y0139489D03*
X0201300Y0143820D03*
X0202481Y0149725D03*
X0166261Y0167048D03*
X0141851Y0200906D03*
X0152481Y0206812D03*
X0161536Y0206812D03*
X0166261Y0204056D03*
X0171379Y0207206D03*
X0166654Y0214686D03*
X0129253Y0200119D03*
X0121772Y0200119D03*
X0114292Y0200119D03*
X0106418Y0200119D03*
X0094607Y0169804D03*
X0099725Y0167048D03*
X0106418Y0158387D03*
X0214292Y0218229D03*
X0223741Y0223741D03*
X0252087Y0220985D03*
X0252087Y0204843D03*
X0265867Y0150119D03*
X0265473Y0140276D03*
X0265080Y0129253D03*
M02*
